<?xml version="1.0" encoding="UTF-8" standalone="no"?>
<!DOCTYPE svg PUBLIC "-//W3C//DTD SVG 1.1//EN" "http://www.w3.org/Graphics/SVG/1.1/DTD/svg11.dtd">
<svg width="100%" height="100%" viewBox="0 0 600 600" version="1.1" xmlns="http://www.w3.org/2000/svg" xmlns:xlink="http://www.w3.org/1999/xlink" xml:space="preserve" xmlns:serif="http://www.serif.com/" style="fill-rule:evenodd;clip-rule:evenodd;stroke-linecap:round;stroke-linejoin:round;stroke-miterlimit:1.5;">
    <g id="Körper" transform="matrix(-1.18848,0,0,1.1489,672.579,-61.06)">
        <ellipse cx="313.846" cy="314.266" rx="240.42" ry="247.972" style="fill:rgb(255,239,81);stroke:black;stroke-width:25.67px;"/>
    </g>
    <g id="linkesAUge" transform="matrix(-1,0,0,1,599.159,0)">
        <path id="linkesAuge" d="M135.915,259.5C125.777,249.405 119.58,235.921 119.58,221.119C119.58,189.857 147.218,164.476 181.259,164.476C215.3,164.476 242.937,189.857 242.937,221.119C242.937,236.696 236.075,250.813 224.979,261.057C213.973,250.733 197.71,244.196 179.58,244.196C162.379,244.196 146.859,250.08 135.915,259.5Z"/>
        <ellipse cx="169.091" cy="204.755" rx="20.979" ry="21.818" style="fill:white;"/>
    </g>
    <g id="rechtesAuge" transform="matrix(-1,0,0,1,599.159,0)">
        <g id="linkesAuge1" serif:id="linkesAuge" transform="matrix(1,0,0,1,240,7.10543e-15)">
            <path d="M135.915,259.5C125.777,249.405 119.58,235.921 119.58,221.119C119.58,189.857 147.218,164.476 181.259,164.476C215.3,164.476 242.937,189.857 242.937,221.119C242.937,236.696 236.075,250.813 224.979,261.057C213.973,250.733 197.71,244.196 179.58,244.196C162.379,244.196 146.859,250.08 135.915,259.5Z"/>
        </g>
        <g transform="matrix(1,0,0,1,240,0)">
            <ellipse cx="169.091" cy="204.755" rx="20.979" ry="21.818" style="fill:white;"/>
        </g>
    </g>
    <g id="Mund" transform="matrix(-1.35811,0,0,1.35811,730.999,-171.431)">
        <path d="M228.097,378.326C242.558,401.121 275.527,417.063 313.846,417.063C350.539,417.063 382.327,402.445 397.655,381.19C401.201,388.904 403.146,397.232 403.171,405.921C403.284,445.951 362.581,478.565 312.333,478.707C262.086,478.849 221.2,446.464 221.087,406.434C221.059,396.477 223.556,386.979 228.097,378.326Z" style="fill:rgb(255,110,152);stroke:black;stroke-width:22.09px;"/>
    </g>
    <g id="Augenbraue" transform="matrix(0.834886,-0.0138174,1.0522,63.577,103.193,-9298.45)">
        <ellipse cx="196.783" cy="148.112" rx="83.916" ry="0.42"/>
    </g>
    <g id="Augenbraue1" serif:id="Augenbraue" transform="matrix(0.834937,-0.0102343,0.77935,63.581,-105.635,-9285.47)">
        <ellipse cx="196.783" cy="148.112" rx="83.916" ry="0.42"/>
    </g>
</svg>
