<?xml version="1.0" encoding="UTF-8" standalone="no"?>
<!DOCTYPE svg PUBLIC "-//W3C//DTD SVG 1.1//EN" "http://www.w3.org/Graphics/SVG/1.1/DTD/svg11.dtd">
<svg width="100%" height="100%" viewBox="0 0 600 600" version="1.1" xmlns="http://www.w3.org/2000/svg" xmlns:xlink="http://www.w3.org/1999/xlink" xml:space="preserve" xmlns:serif="http://www.serif.com/" style="fill-rule:evenodd;clip-rule:evenodd;stroke-linecap:round;stroke-linejoin:round;stroke-miterlimit:1.5;">
    <g id="Körper" transform="matrix(-1.18848,0,0,1.1489,672.579,-61.06)">
        <ellipse cx="313.846" cy="314.266" rx="240.42" ry="247.972" style="fill:rgb(255,239,81);stroke:black;stroke-width:25.67px;"/>
    </g>
    <g id="linkesAUge" transform="matrix(-1,0,0,1,599.159,0)">
        <g id="linkesAuge" transform="matrix(0.90184,0,0,0.84375,10.2244,25.6993)">
            <ellipse cx="189.65" cy="231.608" rx="68.392" ry="67.133"/>
        </g>
        <ellipse cx="169.091" cy="204.755" rx="20.979" ry="21.818" style="fill:white;"/>
    </g>
    <g id="rechtesAuge" transform="matrix(-1,0,0,1,599.159,0)">
        <g id="rechtesAuge1" serif:id="rechtesAuge" transform="matrix(0.90184,0,0,0.84375,250.224,25.6993)">
            <ellipse cx="189.65" cy="231.608" rx="68.392" ry="67.133"/>
        </g>
        <g transform="matrix(1,0,0,1,240,0)">
            <ellipse cx="169.091" cy="204.755" rx="20.979" ry="21.818" style="fill:white;"/>
        </g>
    </g>
    <g id="Mund" transform="matrix(-1,0,0,1,701.537,8.39161)">
        <g id="Mund1" serif:id="Mund" transform="matrix(-0.431378,0.00121536,-0.00230815,-0.819249,542.14,729.139)">
            <ellipse cx="293.706" cy="404.895" rx="211.049" ry="88.531" style="fill:rgb(255,110,152);stroke:black;stroke-width:45.82px;"/>
        </g>
        <g transform="matrix(0.974232,-0.0425726,0.0330253,0.755752,-5.71108,147.963)">
            <ellipse cx="417.902" cy="322.657" rx="72.587" ry="48.252" style="fill:white;"/>
        </g>
    </g>
    <g id="Augenbraue" transform="matrix(0.776706,-0.306517,23.3415,59.1466,-3207.64,-8556.13)">
        <ellipse cx="196.783" cy="148.112" rx="83.916" ry="0.42"/>
    </g>
    <g id="Augenbraue1" serif:id="Augenbraue" transform="matrix(0.729247,-0.406724,30.9722,55.5326,-4568.51,-8001.12)">
        <ellipse cx="196.783" cy="148.112" rx="83.916" ry="0.42"/>
    </g>
</svg>
